<svg width="18" height="18" viewBox="0 0 18 18" fill="none" xmlns="http://www.w3.org/2000/svg">
<g clip-path="url(#clip0_14816_851)">
<path d="M12.937 18C12.3559 18 11.7798 17.8973 11.2164 17.6926C8.73459 16.791 6.43089 15.3226 4.55433 13.4461C2.67777 11.5696 1.20935 9.26582 0.307806 6.78396C0.0180948 5.98637 -0.0674017 5.16305 0.0537769 4.33677C0.167292 3.5628 0.467092 2.81144 0.9208 2.16388C1.37651 1.51348 1.98406 0.972523 2.67773 0.599495C3.41746 0.201718 4.22486 0 5.07757 0C5.34278 0 5.57199 0.185301 5.62757 0.444603L6.51045 4.56471C6.55042 4.75128 6.49308 4.9454 6.35819 5.08033L4.8496 6.58889C6.27273 9.41836 8.58198 11.7276 11.4115 13.1507L12.92 11.6421C13.0549 11.5073 13.2491 11.45 13.4356 11.4899L17.5557 12.3728C17.8151 12.4283 18.0003 12.6576 18.0003 12.9228C18.0003 13.7755 17.7986 14.5829 17.4008 15.3226C17.0278 16.0163 16.4868 16.6239 15.8364 17.0796C15.1889 17.5333 14.4375 17.8331 13.6635 17.9466C13.421 17.9822 13.1785 18 12.937 18ZM4.62816 1.14956C3.50338 1.27373 2.50505 1.86328 1.8421 2.80947C1.09661 3.87343 0.922769 5.18206 1.36516 6.3999C3.09843 11.1713 6.82909 14.902 11.6005 16.6353C12.8183 17.0776 14.127 16.9038 15.1909 16.1583C16.1371 15.4954 16.7267 14.497 16.8509 13.3723L13.4992 12.654L11.9237 14.2295C11.756 14.3972 11.5013 14.4417 11.2868 14.3409C7.94037 12.7688 5.23162 10.06 3.6595 6.71365C3.55871 6.4991 3.60322 6.24437 3.77087 6.07675L5.34637 4.50126L4.62816 1.14956Z" fill="white"/>
</g>
<defs>
<clipPath id="clip0_14816_851">
<rect width="18" height="18" fill="white"/>
</clipPath>
</defs>
</svg>
