<svg width="18" height="18" viewBox="0 0 18 18" fill="none" xmlns="http://www.w3.org/2000/svg">
<path d="M8.99997 3.86914C7.15736 3.86914 5.65826 5.36824 5.65826 7.21085C5.65826 9.05346 7.15736 10.5526 8.99997 10.5526C10.8426 10.5526 12.3417 9.05346 12.3417 7.21085C12.3417 5.36824 10.8426 3.86914 8.99997 3.86914ZM8.99997 9.14553C7.93319 9.14553 7.06529 8.27763 7.06529 7.21085C7.06529 6.14407 7.93319 5.27616 8.99997 5.27616C10.0668 5.27616 10.9347 6.14407 10.9347 7.21085C10.9347 8.27763 10.0668 9.14553 8.99997 9.14553Z" fill="white"/>
<path d="M9.00014 0C5.02393 0 1.78906 3.2349 1.78906 7.21107V7.41041C1.78906 9.42135 2.94198 11.7647 5.21588 14.3753C6.86429 16.2679 8.48967 17.5875 8.55801 17.6427L9.00014 18L9.44226 17.6428C9.51064 17.5875 11.136 16.2679 12.7844 14.3754C15.0583 11.7647 16.2112 9.42138 16.2112 7.41045V7.21111C16.2112 3.2349 12.9763 0 9.00014 0ZM14.8042 7.41045C14.8042 10.8088 10.4254 14.9226 9.00014 16.1715C7.57444 14.9222 3.19609 10.8086 3.19609 7.41045V7.21111C3.19609 4.01077 5.79979 1.40706 9.00014 1.40706C12.2005 1.40706 14.8042 4.01077 14.8042 7.21111V7.41045Z" fill="white"/>
</svg>
