<svg width="19" height="15" viewBox="0 0 19 15" fill="none" xmlns="http://www.w3.org/2000/svg">
<path d="M18.2733 5.61184L17.8592 5.17338L16.4058 1.25564C16.1581 0.593888 15.5248 0.155427 14.8184 0.151367H4.43739C3.73098 0.151367 3.09765 0.593888 2.85 1.25564L1.41688 5.12466L0.820086 5.67679C0.300427 6.11932 0 6.76889 0 7.45094V13.1591C0.00405983 14.0928 0.763248 14.8479 1.69701 14.8479H2.7688C3.70256 14.8479 4.46175 14.0928 4.46581 13.1591V12.3309H14.5342V13.1591C14.5382 14.0928 15.2974 14.8479 16.2312 14.8479H17.303C18.2368 14.8479 18.9959 14.0928 19 13.1591V7.30073C18.9959 6.66333 18.7361 6.05436 18.2733 5.61184ZM3.61325 1.53171C3.74316 1.18662 4.07201 0.963333 4.43739 0.963333H14.8224C15.1878 0.963333 15.5167 1.19068 15.6466 1.53171L16.9132 4.94197H15.9673C15.744 3.41953 14.3271 2.36803 12.8047 2.59538C11.5908 2.77402 10.6368 3.72808 10.4581 4.94197H2.34658L3.61325 1.53171ZM15.1391 4.94197H11.2782C11.5015 3.87423 12.5489 3.19218 13.6167 3.41547C14.3799 3.57786 14.9767 4.17466 15.1391 4.94197ZM3.65385 13.1591C3.64979 13.6462 3.25598 14.036 2.7688 14.036H1.69701C1.20983 14.036 0.816026 13.6462 0.811966 13.1591V12.0954C1.05556 12.2537 1.37628 12.3309 1.69701 12.3309H3.65385V13.1591ZM18.188 13.1591C18.184 13.6462 17.7902 14.036 17.303 14.036H16.2312C15.744 14.036 15.3502 13.6422 15.3462 13.1591V12.3309H17.303C17.6237 12.3309 17.9444 12.2537 18.188 12.0954V13.1591ZM17.303 11.5189H1.69701C1.21389 11.5229 0.816026 11.1373 0.811966 10.6501V7.45094C0.811966 7.00436 1.0109 6.57808 1.35192 6.28983C1.35598 6.28577 1.3641 6.27765 1.36816 6.27359L1.9203 5.75393H17.2949L17.6846 6.17209C17.6887 6.18021 17.7009 6.18427 17.7049 6.19239C18.0094 6.48064 18.184 6.88256 18.184 7.30073V10.6501H18.188C18.184 11.1332 17.7861 11.5229 17.303 11.5189Z" fill="white"/>
</svg>
