<svg width="17" height="17" viewBox="0 0 17 17" fill="none" xmlns="http://www.w3.org/2000/svg">
<path d="M16.1488 0.146667L0.147357 16.1481C-0.166085 16.4616 0.0562715 17 0.500187 17H16.5016C16.7772 17 17.0006 16.7766 17.0006 16.501V0.499531C17.0007 0.0562469 16.4627 -0.167208 16.1488 0.146667ZM16.0027 16.002H1.70492L4.24276 13.4641L4.93785 14.1592C5.03528 14.2567 5.163 14.3054 5.29068 14.3054C5.73127 14.3054 5.95878 13.7688 5.64351 13.4535L4.94843 12.7584L6.37182 11.335L7.0669 12.0301C7.16434 12.1276 7.29206 12.1763 7.41973 12.1763C7.86032 12.1763 8.08784 11.6397 7.77256 11.3244L7.07752 10.6294L8.50091 9.20596L9.196 9.90104C9.29343 9.99848 9.42115 10.0472 9.54883 10.0472C9.98942 10.0472 10.2169 9.51058 9.90166 9.19531L9.20661 8.50026L10.63 7.07686L11.3251 7.77195C11.4225 7.86939 11.5502 7.91809 11.6779 7.91809C12.1185 7.91809 12.346 7.38149 12.0307 7.06622L11.3357 6.37117L12.7591 4.94777L13.4542 5.64285C13.5516 5.74029 13.6793 5.789 13.807 5.789C14.2476 5.789 14.4751 5.2524 14.1598 4.93713L13.4648 4.24208L16.0026 1.70423V16.002H16.0027Z" fill="white"/>
</svg>
