<svg width="19" height="19" viewBox="0 0 19 19" fill="none" xmlns="http://www.w3.org/2000/svg">
<path d="M18.7619 11.0558C18.7619 10.7426 18.508 10.4886 18.1947 10.4886H17.0595V2.75501C17.0595 1.23589 15.8236 0 14.3045 0C12.7853 0 11.5495 1.23589 11.5495 2.75501V3.78902C11.5495 4.10226 11.8034 4.35624 12.1167 4.35624C12.4299 4.35624 12.6839 4.10226 12.6839 3.78902V2.75501C12.6839 1.86141 13.4109 1.13444 14.3045 1.13444C15.1981 1.13444 15.925 1.86141 15.925 2.75501V10.4886H0.805263C0.492022 10.4886 0.238045 10.7426 0.238045 11.0558C0.238045 13.6158 1.85717 15.8044 4.12504 16.6522C3.68878 17.1108 3.41896 17.7397 3.41896 18.4328C3.41896 18.746 3.67293 19 3.98617 19C4.29941 19 4.55339 18.746 4.55339 18.4328C4.55339 17.6583 5.14436 17.0282 5.87081 17.0282C5.8975 17.0282 13.1025 17.0282 13.1292 17.0282C13.8557 17.0282 14.4467 17.6583 14.4467 18.4328C14.4467 18.746 14.7006 19 15.0139 19C15.3271 19 15.5811 18.746 15.5811 18.4328C15.5811 17.7397 15.3112 17.1108 14.875 16.6522C17.1428 15.8044 18.7619 13.6158 18.7619 11.0558ZM12.7896 15.8938H6.21044C3.73457 15.8938 1.68717 14.0245 1.40555 11.6231H17.5945C17.3128 14.0245 15.2654 15.8938 12.7896 15.8938Z" fill="white"/>
</svg>
