<svg width="8" height="12" viewBox="0 0 8 12" fill="none" xmlns="http://www.w3.org/2000/svg">
<path d="M0.666482 5.53176L6.00663 0.191706C6.13015 0.068097 6.29502 0 6.47083 0C6.64663 0 6.81151 0.068097 6.93502 0.191706L7.32828 0.584873C7.58418 0.841066 7.58418 1.25745 7.32828 1.51326L2.84403 5.99751L7.33326 10.4867C7.45677 10.6104 7.52496 10.7751 7.52496 10.9508C7.52496 11.1267 7.45677 11.2915 7.33326 11.4152L6.93999 11.8083C6.81638 11.9319 6.6516 12 6.4758 12C6.3 12 6.13512 11.9319 6.01161 11.8083L0.666482 6.46336C0.542678 6.33936 0.474679 6.1738 0.47507 5.99781C0.474679 5.82112 0.542678 5.65566 0.666482 5.53176Z" fill="white"/>
</svg>
