<svg width="19" height="15" viewBox="0 0 19 15" fill="none" xmlns="http://www.w3.org/2000/svg">
<path d="M17.2372 6.62503V2.39389C17.2372 1.46107 16.4782 0.702148 15.5454 0.702148H3.45459C2.52177 0.702148 1.76284 1.46107 1.76284 2.39389V6.62503C0.74768 6.90606 0 7.8375 0 8.94084V12.1557C0 12.4672 0.252566 12.7198 0.564062 12.7198H1.76284V13.7345C1.76284 14.046 2.01541 14.2986 2.32691 14.2986C2.6384 14.2986 2.89097 14.046 2.89097 13.7345V12.7198H16.109V13.7345C16.109 14.046 16.3616 14.2986 16.6731 14.2986C16.9846 14.2986 17.2372 14.046 17.2372 13.7345V12.7198H18.4359C18.7474 12.7198 19 12.4672 19 12.1557V8.94084C19 7.8375 18.2523 6.90606 17.2372 6.62503ZM2.89097 2.39389C2.89097 2.08314 3.14383 1.83027 3.45459 1.83027H15.5455C15.8562 1.83027 16.1091 2.08314 16.1091 2.39389V6.53775H14.7874V5.4055C14.7874 4.42095 13.9864 3.61998 13.0019 3.61998H10.7215C10.2493 3.61998 9.81966 3.80453 9.50004 4.10493C9.18041 3.80457 8.75076 3.61998 8.27858 3.61998H5.99817C5.01362 3.61998 4.21266 4.42099 4.21266 5.4055V6.53775H2.89097V2.39389ZM13.6593 5.4055V6.53775H10.0641V5.4055C10.0641 5.04298 10.359 4.74811 10.7215 4.74811H13.0019C13.3644 4.74811 13.6593 5.04302 13.6593 5.4055ZM8.9359 5.4055V6.53775H5.34067V5.4055C5.34067 5.04298 5.63562 4.74811 5.99806 4.74811H8.27847C8.64099 4.74811 8.9359 5.04302 8.9359 5.4055ZM17.8719 11.5917H1.12812V8.94084C1.12812 8.23784 1.70005 7.66587 2.40309 7.66587H16.5969C17.2999 7.66587 17.8719 8.2378 17.8719 8.94084V11.5917Z" fill="#696969"/>
</svg>
