<svg width="19" height="19" viewBox="0 0 19 19" fill="none" xmlns="http://www.w3.org/2000/svg">
<path d="M18.2733 7.61184L17.8592 7.17338L16.4058 3.25564C16.1581 2.59389 15.5248 2.15543 14.8184 2.15137H4.43739C3.73098 2.15137 3.09765 2.59389 2.85 3.25564L1.41688 7.12466L0.820086 7.67679C0.300427 8.11932 0 8.76889 0 9.45094V15.1591C0.00405983 16.0928 0.763248 16.8479 1.69701 16.8479H2.7688C3.70256 16.8479 4.46175 16.0928 4.46581 15.1591V14.3309H14.5342V15.1591C14.5382 16.0928 15.2974 16.8479 16.2312 16.8479H17.303C18.2368 16.8479 18.9959 16.0928 19 15.1591V9.30073C18.9959 8.66333 18.7361 8.05436 18.2733 7.61184ZM3.61325 3.53171C3.74316 3.18662 4.07201 2.96333 4.43739 2.96333H14.8224C15.1878 2.96333 15.5167 3.19068 15.6466 3.53171L16.9132 6.94197H15.9673C15.744 5.41953 14.3271 4.36803 12.8047 4.59538C11.5908 4.77402 10.6368 5.72808 10.4581 6.94197H2.34658L3.61325 3.53171ZM15.1391 6.94197H11.2782C11.5015 5.87423 12.5489 5.19218 13.6167 5.41547C14.3799 5.57786 14.9767 6.17466 15.1391 6.94197ZM3.65385 15.1591C3.64979 15.6462 3.25598 16.036 2.7688 16.036H1.69701C1.20983 16.036 0.816026 15.6462 0.811966 15.1591V14.0954C1.05556 14.2537 1.37628 14.3309 1.69701 14.3309H3.65385V15.1591ZM18.188 15.1591C18.184 15.6462 17.7902 16.036 17.303 16.036H16.2312C15.744 16.036 15.3502 15.6422 15.3462 15.1591V14.3309H17.303C17.6237 14.3309 17.9444 14.2537 18.188 14.0954V15.1591ZM17.303 13.5189H1.69701C1.21389 13.5229 0.816026 13.1373 0.811966 12.6501V9.45094C0.811966 9.00436 1.0109 8.57808 1.35192 8.28983C1.35598 8.28577 1.3641 8.27765 1.36816 8.27359L1.9203 7.75393H17.2949L17.6846 8.17209C17.6887 8.18021 17.7009 8.18427 17.7049 8.19239C18.0094 8.48064 18.184 8.88256 18.184 9.30073V12.6501H18.188C18.184 13.1332 17.7861 13.5229 17.303 13.5189Z" fill="#696969"/>
<path d="M5.35897 9.37793H2.31409C2.0908 9.37793 1.90811 9.56062 1.90811 9.78391V11.895C1.90811 12.1183 2.0908 12.301 2.31409 12.301H5.35897C5.58226 12.301 5.76495 12.1183 5.76495 11.895V9.78391C5.76495 9.56062 5.58226 9.37793 5.35897 9.37793ZM4.95298 11.489H2.72008V10.1899H4.95298V11.489Z" fill="#696969"/>
<path d="M16.6859 9.37793H13.6411C13.4178 9.37793 13.2351 9.56062 13.2351 9.78391V11.895C13.2351 12.1183 13.4178 12.301 13.6411 12.301H16.6859C16.9092 12.301 17.0919 12.1183 17.0919 11.895V9.78391C17.0919 9.56062 16.9092 9.37793 16.6859 9.37793ZM16.2799 11.489H14.047V10.1899H16.2799V11.489Z" fill="#696969"/>
<path d="M11.4609 11.083H7.5391C7.31581 11.083 7.13312 11.2657 7.13312 11.489C7.13312 11.7123 7.31581 11.895 7.5391 11.895H11.4609C11.6842 11.895 11.8669 11.7123 11.8669 11.489C11.8669 11.2657 11.6842 11.083 11.4609 11.083Z" fill="#696969"/>
<path d="M11.4609 9.8252H7.5391C7.31581 9.8252 7.13312 10.0079 7.13312 10.2312C7.13312 10.4545 7.31581 10.6372 7.5391 10.6372H11.4609C11.6842 10.6372 11.8669 10.4545 11.8669 10.2312C11.8669 10.0079 11.6842 9.8252 11.4609 9.8252Z" fill="#696969"/>
</svg>
