<svg width="20" height="20" viewBox="0 0 20 20" fill="none" xmlns="http://www.w3.org/2000/svg">
<g clip-path="url(#clip0_14816_817)">
<path d="M4.27391 3.48017H0.58823C0.263319 3.48017 0 3.21668 0 2.89194C0 2.56721 0.263319 2.30371 0.58823 2.30371H4.27391C4.59882 2.30371 4.86214 2.56721 4.86214 2.89194C4.86214 3.21668 4.59882 3.48017 4.27391 3.48017Z" fill="#0061DF"/>
<path d="M6.38012 5.58609C4.89439 5.58609 3.68573 4.37743 3.68573 2.89183C3.68573 1.40592 4.89439 0.197266 6.38012 0.197266C7.86585 0.197266 9.07451 1.40592 9.07451 2.89183C9.07451 4.37748 7.86585 5.58609 6.38012 5.58609ZM6.38012 1.37377C5.54311 1.37377 4.86219 2.05483 4.86219 2.89183C4.86219 3.72884 5.54311 4.40959 6.38012 4.40959C7.21713 4.40959 7.89805 3.72884 7.89805 2.89183C7.89805 2.05483 7.21713 1.37377 6.38012 1.37377Z" fill="#0061DF"/>
<path d="M19.4118 3.48017H10.6201C10.2952 3.48017 10.0319 3.21668 10.0319 2.89194C10.0319 2.56721 10.2952 2.30371 10.6201 2.30371H19.4118C19.7367 2.30371 20 2.56721 20 2.89194C20 3.21668 19.7367 3.48017 19.4118 3.48017Z" fill="#0061DF"/>
<path d="M14.2781 12.6942C12.7923 12.6942 11.5837 11.4855 11.5837 9.99992C11.5837 8.51432 12.7923 7.30566 14.2781 7.30566C15.7638 7.30566 16.9725 8.51432 16.9725 9.99992C16.9725 11.4855 15.7638 12.6942 14.2781 12.6942ZM14.2781 8.48217C13.4411 8.48217 12.7601 9.16291 12.7601 9.99992C12.7601 10.8369 13.4411 11.5177 14.2781 11.5177C15.1151 11.5177 15.796 10.8369 15.796 9.99992C15.796 9.16291 15.1151 8.48217 14.2781 8.48217Z" fill="#0061DF"/>
<path d="M10.0382 10.5886H0.58823C0.263319 10.5886 0 10.3251 0 10.0003C0 9.6756 0.263319 9.41211 0.58823 9.41211H10.0382C10.3631 9.41211 10.6264 9.6756 10.6264 10.0003C10.6264 10.3251 10.3631 10.5886 10.0382 10.5886Z" fill="#0061DF"/>
<path d="M19.4117 10.5886H16.3842C16.0592 10.5886 15.7959 10.3251 15.7959 10.0003C15.7959 9.6756 16.0592 9.41211 16.3842 9.41211H19.4117C19.7366 9.41211 20 9.6756 20 10.0003C20 10.3251 19.7366 10.5886 19.4117 10.5886Z" fill="#0061DF"/>
<path d="M5.72204 19.8029C4.23631 19.8029 3.02765 18.5942 3.02765 17.1083C3.02765 15.6227 4.23631 14.4141 5.72204 14.4141C7.20777 14.4141 8.41643 15.6227 8.41643 17.1083C8.41643 18.5942 7.20777 19.8029 5.72204 19.8029ZM5.72204 15.5906C4.88503 15.5906 4.20411 16.2713 4.20411 17.1083C4.20411 17.9453 4.88503 18.6264 5.72204 18.6264C6.55905 18.6264 7.23997 17.9453 7.23997 17.1083C7.23997 16.2713 6.55905 15.5906 5.72204 15.5906Z" fill="#0061DF"/>
<path d="M19.4118 17.696H9.96189C9.63698 17.696 9.37366 17.4325 9.37366 17.1078C9.37366 16.783 9.63698 16.5195 9.96189 16.5195H19.4118C19.7367 16.5195 20 16.783 20 17.1078C20 17.4325 19.7367 17.696 19.4118 17.696Z" fill="#0061DF"/>
<path d="M3.61581 17.696H0.58823C0.263319 17.696 0 17.4325 0 17.1078C0 16.783 0.263319 16.5195 0.58823 16.5195H3.61581C3.94072 16.5195 4.20404 16.783 4.20404 17.1078C4.20404 17.4325 3.94072 17.696 3.61581 17.696Z" fill="#0061DF"/>
</g>
<defs>
<clipPath id="clip0_14816_817">
<rect width="20" height="20" fill="white"/>
</clipPath>
</defs>
</svg>
