<svg width="16" height="16" viewBox="0 0 16 16" fill="none" xmlns="http://www.w3.org/2000/svg">
<g clip-path="url(#clip0_14816_804)">
<path d="M7.04606 0C3.16097 0 0 3.16097 0 7.04606C0 10.9314 3.16097 14.0921 7.04606 14.0921C10.9314 14.0921 14.0921 10.9314 14.0921 7.04606C14.0921 3.16097 10.9314 0 7.04606 0ZM7.04606 12.7913C3.87816 12.7913 1.30081 10.214 1.30081 7.04609C1.30081 3.87819 3.87816 1.30081 7.04606 1.30081C10.214 1.30081 12.7913 3.87816 12.7913 7.04606C12.7913 10.214 10.214 12.7913 7.04606 12.7913Z" fill="white"/>
<path d="M15.8094 14.8893L12.0804 11.1603C11.8263 10.9062 11.4148 10.9062 11.1607 11.1603C10.9066 11.4142 10.9066 11.8261 11.1607 12.08L14.8897 15.809C15.0168 15.936 15.1831 15.9995 15.3496 15.9995C15.5159 15.9995 15.6824 15.936 15.8094 15.809C16.0635 15.5551 16.0635 15.1432 15.8094 14.8893Z" fill="white"/>
</g>
<defs>
<clipPath id="clip0_14816_804">
<rect width="16" height="16" fill="white"/>
</clipPath>
</defs>
</svg>
